<svg xmlns="http://www.w3.org/2000/svg" width="226" height="228" viewBox="0 0 226 228">
  <g id="Group_13" data-name="Group 13" transform="translate(-369 -325)">
    <rect id="Rectangle_1" data-name="Rectangle 1" width="184" height="184" rx="29" transform="translate(391 347)" fill="#c06"/>
    <rect id="Rectangle_2" data-name="Rectangle 2" width="134" height="134" transform="translate(415 371)" fill="#fff"/>
    <rect id="Rectangle_3" data-name="Rectangle 3" width="88" height="88" transform="translate(439 395)" fill="#c06"/>
    <rect id="Rectangle_4" data-name="Rectangle 4" width="37" height="37" transform="translate(464 420)" fill="#fff"/>
    <g id="Group_2" data-name="Group 2" transform="translate(442.439 325)">
      <rect id="Rectangle_5" data-name="Rectangle 5" width="24" height="44" transform="translate(-0.439)" fill="#c06"/>
      <rect id="Rectangle_6" data-name="Rectangle 6" width="24" height="44" transform="translate(56.561)" fill="#c06"/>
    </g>
    <g id="Group_3" data-name="Group 3" transform="translate(594.826 394.767) rotate(90)">
      <rect id="Rectangle_5-2" data-name="Rectangle 5" width="24" height="46" transform="translate(0.233 -0.174)" fill="#c06"/>
      <rect id="Rectangle_6-2" data-name="Rectangle 6" width="24" height="46" transform="translate(57.233 -0.174)" fill="#c06"/>
    </g>
    <g id="Group_5" data-name="Group 5" transform="translate(413.064 394.767) rotate(90)">
      <rect id="Rectangle_5-3" data-name="Rectangle 5" width="24" height="44" transform="translate(0.233 0.064)" fill="#c06"/>
      <rect id="Rectangle_6-3" data-name="Rectangle 6" width="24" height="44" transform="translate(57.233 0.064)" fill="#c06"/>
    </g>
    <g id="Group_4" data-name="Group 4" transform="translate(442.439 506.762)">
      <rect id="Rectangle_5-4" data-name="Rectangle 5" width="24" height="46" transform="translate(-0.439 0.238)" fill="#c06"/>
      <rect id="Rectangle_6-4" data-name="Rectangle 6" width="24" height="46" transform="translate(56.561 0.238)" fill="#c06"/>
    </g>
  </g>
</svg>
